<mxfile host="65bd71144e">
    <diagram id="xaEyN-xRe_FyhjG6tCta" name="Page-1">
        <mxGraphModel dx="517" dy="287" grid="1" gridSize="10" guides="1" tooltips="1" connect="1" arrows="1" fold="1" page="1" pageScale="1" pageWidth="850" pageHeight="1100" math="0" shadow="0">
            <root>
                <mxCell id="0"/>
                <mxCell id="1" parent="0"/>
                <mxCell id="4" style="edgeStyle=none;html=1;entryX=0.5;entryY=1;entryDx=0;entryDy=0;endArrow=none;endFill=0;" parent="1" source="2" target="9" edge="1">
                    <mxGeometry relative="1" as="geometry">
                        <mxPoint x="449.9999999999999" y="130" as="targetPoint"/>
                    </mxGeometry>
                </mxCell>
                <mxCell id="2" value="patient" style="rounded=0;whiteSpace=wrap;html=1;" parent="1" vertex="1">
                    <mxGeometry x="305" y="180" width="120" height="60" as="geometry"/>
                </mxCell>
                <mxCell id="7" style="edgeStyle=none;html=1;entryX=0.5;entryY=1;entryDx=0;entryDy=0;endArrow=none;endFill=0;exitX=0;exitY=0;exitDx=0;exitDy=0;" parent="1" source="9" target="5" edge="1">
                    <mxGeometry relative="1" as="geometry">
                        <mxPoint x="421.79047474872345" y="93.48710716998454" as="sourcePoint"/>
                    </mxGeometry>
                </mxCell>
                <mxCell id="8" style="edgeStyle=none;html=1;entryX=0.5;entryY=1;entryDx=0;entryDy=0;endArrow=none;endFill=0;exitX=1;exitY=0;exitDx=0;exitDy=0;" parent="1" source="9" target="6" edge="1">
                    <mxGeometry relative="1" as="geometry">
                        <mxPoint x="479.274527692216" y="93.78641543200331" as="sourcePoint"/>
                    </mxGeometry>
                </mxCell>
                <mxCell id="5" value="city" style="ellipse;whiteSpace=wrap;html=1;align=center;" parent="1" vertex="1">
                    <mxGeometry x="315" y="20" width="100" height="40" as="geometry"/>
                </mxCell>
                <mxCell id="6" value="street" style="ellipse;whiteSpace=wrap;html=1;align=center;" parent="1" vertex="1">
                    <mxGeometry x="490" y="20" width="100" height="40" as="geometry"/>
                </mxCell>
                <mxCell id="9" value="address" style="ellipse;shape=doubleEllipse;margin=3;whiteSpace=wrap;html=1;align=center;" vertex="1" parent="1">
                    <mxGeometry x="410" y="100" width="100" height="40" as="geometry"/>
                </mxCell>
            </root>
        </mxGraphModel>
    </diagram>
</mxfile>